<?xml version="1.0" encoding="utf-8"?>
<!-- Generator: Adobe Illustrator 24.3.0, SVG Export Plug-In . SVG Version: 6.00 Build 0)  -->
<svg version="1.1" id="Layer_1" xmlns="http://www.w3.org/2000/svg" xmlns:xlink="http://www.w3.org/1999/xlink" x="0px" y="0px"
	 viewBox="0 0 252.65 250.46" style="enable-background:new 0 0 252.65 250.46;" xml:space="preserve">
<style type="text/css">
	.st0{stroke:#000000;stroke-miterlimit:10;}
</style>
<path class="st0" d="M2.12,13.02c1.39-0.73,3.54-0.45,4.41,0.63c2.22,2.73,2.1,4.83,3.57,8.4c1.98,4.82,1.7,3.02,5.88,14.6
	c0.89,2.46,4.14,11.64,8.22,22.05c1.06,2.71,1.78,4.48,2.91,4.53c1.98,0.09,3.46-5.22,7.12-16.82c5.16-16.38,7.83-23.79,9.38-28.14
	c2.15-6.04,2.2-10.3,5.54-13.16c1.91-1.64,5.4-1.01,7.4,0.54c2.96,2.29,2.48,7.14,2.59,9.06c0.53,9.67,2.78,19.57,3.23,29.43
	c0.29,6.17,0.36,2.36,3.88,33.31c2.86,25.18,3.31,29.87,3.56,32.99c0.98,12.13,1.59,9.27,2.82,26.38
	c1.65,23.08,3.04,31.26,2.89,36.04c0,0,0.61,5.69-0.22,12.29c-0.3,2.41-0.08,6.03-2.06,7.65c-0.38,0.32-2.74,2.09-4.46,1.61
	c-1.95-0.54-3.33-4.75-3.51-6.67c-0.94-10.17,0.04-15.87-0.32-23.93c-0.12-2.72-0.43-10.43-1.94-25.87
	c-1.57-16.07-2.39-18.8-3.56-30.4c-1.59-15.74-1.13-21.05-1.94-34.93c-0.67-11.42-2.15-27.78-5.82-47.87
	c-2.52,7.96-5.42,16.29-8.73,24.9c-2.78,7.23-4.76,14.53-7.66,21.04c-1.1,3.15-2.13,5.44-4.31,6.45c-2.44,1.13-5.06-0.25-5.82-0.65
	c-4.56-2.39-5.81-7.69-7.44-12.94c-1.69-5.46-3.33-12.41-8.63-18.92c-0.26,5.42,0.75,12.26,1.06,21.37
	c0.12,3.48,0.96,8.29,1.37,18.71c0.52,13.37,0.62,17.37,1.99,30.26c1.81,17.16,2.72,25.74,2.91,34.28
	c0.43,19.15,0.57,19.76,0.65,27.49c0.05,4.42,1.13,6.63,1.29,14.23c0.05,2.45-0.86,6.36-3.23,7.12c-1.6,0.51-4.08-0.7-4.31-2.57
	c-0.4-4.72-0.89-10.64-1.51-19.42c-1.37-19.34-1.54-27.46-2.59-47.54C6.09,116.27,5.01,95.7,3.17,71.63
	C2.33,60.64,3.33,49.39,0.91,38.64c-0.71-3.17-0.78-7.89-0.9-17.34C-0.03,17.8,0.01,14.12,2.12,13.02z"/>
<path class="st0" d="M137.5,144.3c-0.39-2.82-2.76-3.25-4.97-2.84c-1.81,0.34-2.98,2.38-3.08,3.08c-0.7,4.88,0.11,7.34,0.95,12.3
	c0.35,2.1,1.85,12.97-2.77,19.91c-0.45,0.68-5.61,6.44-9.29,4.46c-3.6-1.93-4.42-6.83-7.81-20.35
	c-7.3-29.14-10.76-39.96-11.05-41.01c-0.89-3.25-3.71-10.12-1.28-11.35c4.7-2.37,14.44-5.24,23.71-5.76
	c1.73-0.1,4.56,0.68,6.42-0.99c2.01-1.8,1.79-5.11,1.65-6.75c-0.9-10.66-4.12-20.42-4.12-20.42c-2.42-9.81-0.85-5.39-6.03-24.61
	c-3.97-14.74-4.7-17.04-5.39-18.69c-2.3-5.46-6.69-14.21-14.64-19.27c-3.09-1.97-5.53-2.62-7.9-2.31c-3.26,0.42-5.42,2.53-6.36,3.47
	c-5.01,5.03-5.31,12.58-5.39,15.8c-0.6,22.97,1.73,37.18,1.73,37.18c3.04,18.49,3.65,17.98,6.17,33.33
	c3.73,22.74,3.32,22.15,6.59,36.94c3.8,17.2,3.11,18.68,5.25,28.22c1.09,4.89,1.57,6.3,3.73,12.1c2.05,5.5,2.03,8.12,6.44,10.85
	c5.5,3.4,13.07,3.25,18.46,0c5.3-3.2,6.98-8.29,9.46-18.69C139.61,162.05,138.48,151.33,137.5,144.3z M93.05,82.99
	c-0.51-4.31-0.5-1.9-2.65-13.88c-1.77-9.85-2.66-14.77-3.27-20.2c0,0-0.57-3.23-0.28-18.57c0.05-2.55,0-9.39,3.75-11.43
	c1.99-1.08,4.52,0.23,5.31,0.61c4.64,2.29,9.32,9.46,10.61,13.67c5.02,16.35,3.18,10.58,6.02,19.86c3.82,12.46,1.52,9.93,5.2,22.38
	c3.16,10.7,3.79,12.27,3.27,17.35c-0.33,3.22-5.38,0.17-14.28,2.24c-6.69,1.56-8.43,3.69-10.61,2.45
	C93.45,95.96,94.09,91.67,93.05,82.99z"/>
<path class="st0" d="M207.03,187.93c-6.38-24.04-9.57-36.06-16.97-63.26c-3.53-12.97-5.62-20.66-8.34-31.92
	c-10.84-44.82-16.26-67.23-16.39-70.74c-0.06-1.49-0.75-6.35-3.16-11.79c-1.84-4.14-3.68-6.33-6.85-9.23
	c-2.01-1.84-5.88-1.69-9.26-1.12c-1.58,0.27-5.38,1.47-9.2,10.35c-4.6,10.69-4.07,20.56-3.45,30.19
	c1.39,21.63,2.09,32.45,2.59,36.23c1.86,14.12,4.05,24.14,7.76,41.12c3.15,14.41,1.68,5.75,7.48,29.91
	c2.15,8.97,3.81,16.22,8.91,24.73c5.72,9.54,10.34,11.6,12.94,12.37c5.4,1.58,10.43-0.03,11.22-0.29c3.75-1.25,6.22-3.36,7.48-4.6
	c2.89,8.04,4.65,14.97,5.75,20.13c2.67,12.49,2.26,18.26,1.73,21.85c-0.76,5.11-1.7,10.93-6.33,13.52c-2.4,1.34-5.83,1.83-8.63,0.58
	c-2.56-1.15-4.01-3.74-6.9-8.91c-2.63-4.7-3.07-6.76-5.46-7.76c-1.47-0.62-3.62-0.82-5.18,0.29c-1.93,1.37-1.99,4.08-2.01,5.46
	c-0.06,3.14,1.07,5.71,3.16,9.2c3.78,6.31,5.67,9.47,8.91,11.79c1.22,0.87,7.52,5.19,14.67,4.31c13.7-1.68,19.87-21.19,20.42-23.01
	C214.82,217.73,213.08,210.74,207.03,187.93z M187.81,170.46c-1.61,2.7-5.31,4.14-8.49,3.74c-3.42-0.44-5.76-2.94-7.81-5.78
	c-6.43-8.89-8.35-18.74-9.17-22.76c-3.06-14.93-2.68-6.5-9.17-34.31c-2.54-10.89-4.27-18.3-6.12-28.88
	c-3.07-17.62-3.85-29.1-4.08-32.96c-0.06-1.07-0.61-10.71,0.34-23.44c1.17-15.66,3.14-16.49,3.74-16.65
	c3.32-0.85,8.96,7.59,11.55,14.95c1.32,3.75,1.19,5.35,2.38,11.21c1.78,8.8,3.35,14.42,4.1,17.99c3.27,15.56,4.18,26.3,8.81,49.29
	c6.68,33.18,10.01,49.77,13.25,57.42C187.8,161.84,189.99,166.81,187.81,170.46z"/>
<path class="st0" d="M216.24,27.4c-2.54-6.51-1.24-5.93-3.21-9.9c-0.94-1.89-2.43-4.84-5.44-7.67c-1.91-1.8-3.36-3.17-5.72-3.63
	c-4.09-0.79-7.45,1.83-7.95,2.23c-3.05,2.46-3.75,5.95-4.46,9.76c-0.49,2.66-1.2,8.39,0.56,16.73c0.97,4.6,2.52,11.99,7.95,19.24
	c2.41,3.22,5.6,5.91,11.99,11.29c6.08,5.12,8.14,6.1,11.99,10.18c4.02,4.26,6.4,8.1,7.67,10.18c8.55,13.98,9.66,28.44,10.03,34
	c0.77,11.59-1.13,19.56-2.81,26.6c-1.4,5.87-3.31,11.52-8.26,15.36c-1.32,1.03-4.32,3.35-7.1,2.48c-4.01-1.25-5.45-8.41-5.62-9.25
	c-0.78-3.89,0.04-6.26-1.82-7.76c-1.5-1.22-3.51-0.88-3.8-0.83c-2.72,0.5-4.01,3.19-4.46,4.13c-0.99,2.06-1.05,4.15-0.66,7.1
	c0.86,6.51,1.46,11.04,5.41,15.01c4.04,4.06,8.95,4.87,10.06,5.03c6.98,1,12.34-2.6,14.66-4.16c7.8-5.25,10.72-13.14,13.12-19.91
	c1.04-2.93,5.56-16.25,3.94-34.78c-0.56-6.38-1.85-19.57-9.84-33.91c-2.56-4.58-7.54-13.52-17.28-21.44
	c-8.29-6.74-12.83-6.9-18.59-14.66c-4.46-6-6.23-11.94-7.44-15.97c0,0-1.65-5.54-1.41-13.46c0.06-2.02,0.28-4.49,1.51-4.92
	c0.83-0.29,1.81,0.45,2.4,0.88c1.86,1.39,2.63,3.3,3.15,4.66c2.11,5.47,3.17,8.2,3.53,9.45c0.93,3.22,1.1,4.57,2.52,5.67
	c0.23,0.18,2.18,1.64,4.03,0.88c1.71-0.7,2.15-2.81,2.27-3.4C217.58,30.66,216.88,29.06,216.24,27.4z"/>
<path class="st0" d="M-86.84,236.63"/>
</svg>
