<?xml version="1.0" encoding="utf-8"?>
<!-- Generator: Adobe Illustrator 24.3.0, SVG Export Plug-In . SVG Version: 6.00 Build 0)  -->
<svg version="1.1" id="Ideogram" xmlns="http://www.w3.org/2000/svg" xmlns:xlink="http://www.w3.org/1999/xlink" x="0px" y="0px"
	 viewBox="0 0 288.29 286.96" style="enable-background:new 0 0 288.29 286.96;" xml:space="preserve">
<style type="text/css">
	.st0{fill:#0F0F0F;}
	.st1{fill:#FFFAF0;}
</style>
<circle id="background" class="st0" cx="145.48" cy="143.48" r="143.48"/>
<g id="mone">
	<path class="st1" d="M109.72,4.43c1.07-0.23,2.63-0.62,3.29-0.78c0.87-0.21,0,0,2.22-0.48l-9.1,33.3
		c-3.81,12.7-8.44,28.59-13.88,47.68c-5.45,19.09-10.85,38.84-16.22,59.25c-8.35,31.44-14.04,56.69-17.07,75.73
		c-0.64,4.39-0.98,8.01-1.03,10.84c0.05,2,0.39,3,1.03,3c0.63,0,1.59-1.15,2.86-3.44c7.32-21.58,18.65-46.25,33.98-74.01
		c15.33-27.76,30.79-52.5,46.36-74.23c7.57-10.5,14.43-19.09,20.58-25.78c5.96-6.74,11.25-10.81,15.89-12.23
		c0.63-0.19,1.27-0.29,1.9-0.29s1.43,0.12,2.38,0.37s1.87,0.85,2.75,1.83c1.46,2,2.2,4.59,2.2,7.76v0.29
		c-1.86,10.3-3.98,20.08-6.37,29.33c-2.39,9.25-4.79,18.01-7.18,26.26c-3.27,11.08-5.96,21.34-8.06,30.76
		c-1.76,8.01-2.64,15.48-2.64,22.41c0,1.27,0.02,2.54,0.07,3.81c0.05,2.73,0.56,4.66,1.54,5.79c0.34,0.39,0.78,0.59,1.32,0.59
		c1.07,0,2.51-0.68,4.32-2.05c2.34-2.2,5.33-6.31,8.97-12.34s7.65-13,12.05-20.91c3.86-6.98,7.84-13.98,11.94-20.98
		c4.1-7.01,8.12-13.3,12.05-18.9c3.93-5.59,7.58-9.78,10.95-12.56c2.25-1.9,4.3-2.86,6.15-2.86c0.93,0,1.81,0.25,2.64,0.73
		c1.71,1.17,2.56,3.47,2.56,6.88c0,0.93-0.18,2.94-0.55,6.04s-1.33,8.12-2.89,15.05c-1.42,6.1-2.61,12.26-3.59,18.46
		c-0.59,3.66-0.88,7.13-0.88,10.4c0,2.3,0.23,5.21,0.7,8.75c0.46,3.54,2.45,6.6,5.97,9.19c1.12,0.29,2.25,0.44,3.37,0.44
		c2.98,0,5.67-1.04,9.53-2.77c2.32-1.04,7.89-6.04,10.24-10.86c2.36-4.83,4.38-9.23,5.47-11.37c2.33-4.59,6.13-8.14,6.7-8.81
		c2.06-2.42,13.63-8.31,13.97-8.27l0.86,4.79c0,0-9.03,3.82-12.83,9.12c-3.33,4.35-3.64,4.72-6.04,9.44
		c-1.84,4.63-3.88,8.49-7.22,12.47c-3.35,3.98-7.14,7.14-11.39,9.48c-2.78,1.51-5.81,2.27-9.08,2.27c-1.71,0-3.49-0.22-5.35-0.66
		c-5.18-2.98-8.4-7.32-9.67-13.04c-0.73-3.22-1.1-6.64-1.1-10.25c0-2.78,0.37-6.65,1.1-11.61s1.88-10.78,3.44-17.47
		c1.9-7.71,3.03-14.21,3.37-19.48c-0.15-1.27-0.46-1.9-0.95-1.9c-0.1,0-0.34,0.09-0.73,0.26s-1.07,0.72-2.05,1.65
		c-0.2,0.15-0.39,0.32-0.59,0.51c-3.32,2.69-7.42,8.06-12.3,16.11c-4.88,8.06-9.96,16.97-15.23,26.73
		c-5.18,9.47-10.07,18.02-14.69,25.63s-8.41,12.57-11.39,14.87c-2.49,2.2-5.01,3.47-7.54,3.81c-0.25,0.05-0.49,0.07-0.73,0.07
		c-1.08,0-2.15-0.29-3.22-0.88c-1.08-0.59-1.95-1.46-2.64-2.64c-1.27-2.2-1.98-5.08-2.12-8.64v-0.59c0-10.2,1.23-20.69,3.7-31.46
		c2.46-10.77,5.41-21.79,8.83-33.07c2.29-7.76,4.48-15.62,6.55-23.58c2.08-7.96,3.77-15.99,5.09-24.1v-0.15
		c0-0.49-0.04-1.14-0.11-1.94s-0.26-1.48-0.55-2.01c-0.25-0.44-0.61-0.66-1.1-0.66c-0.15,0-0.32,0.03-0.51,0.07
		c-2.59,0.73-6.98,4.3-13.18,10.69c-6.01,6.4-12.74,14.82-20.21,25.27c-15.43,21.58-30.8,46.25-46.11,74.01
		s-26.53,52.14-33.65,73.13c-1.37,3.03-3.13,5.35-5.27,6.96c-1.32,0.93-2.54,1.39-3.66,1.39c-0.83,0-1.89-0.39-3.19-1.17
		c-1.29-0.78-2.09-3.81-2.38-9.08c0.1-3.17,0.46-7.01,1.1-11.5c3.08-19.43,8.79-44.87,17.14-76.32c5.42-20.46,10.85-40.26,16.3-59.4
		c5.44-19.14,10.07-35.06,13.88-47.75L109.72,4.43z"/>
</g>
<g id="mtwo">
	<path class="st1" d="M122.21,1.88c1.07-0.23,5.61-0.8,5.61-0.8l-9.28,35.39c-3.81,12.7-8.44,28.59-13.88,47.68
		c-5.45,19.09-10.85,38.84-16.22,59.25c-8.35,31.44-14.04,56.69-17.07,75.73c-0.64,4.39-0.98,8.01-1.03,10.84c0.05,2,0.39,3,1.03,3
		c0.63,0,1.59-1.15,2.86-3.44c7.32-21.58,18.65-46.25,33.98-74.01c15.33-27.76,30.79-52.5,46.36-74.23
		c7.57-10.5,14.43-19.09,20.58-25.78c5.96-6.74,11.25-10.81,15.89-12.23c0.63-0.19,1.27-0.29,1.9-0.29s1.43,0.12,2.38,0.37
		s1.87,0.85,2.75,1.83c1.46,2,2.2,4.59,2.2,7.76v0.29c-1.86,10.3-3.98,20.08-6.37,29.33c-2.39,9.25-4.79,18.01-7.18,26.26
		c-3.27,11.08-5.96,21.34-8.06,30.76c-1.76,8.01-2.64,15.48-2.64,22.41c0,1.27,0.02,2.54,0.07,3.81c0.05,2.73,0.56,4.66,1.54,5.79
		c0.34,0.39,0.78,0.59,1.32,0.59c1.07,0,2.51-0.68,4.32-2.05c2.34-2.2,5.33-6.31,8.97-12.34s7.65-13,12.05-20.91
		c3.86-6.98,7.84-13.98,11.94-20.98c4.1-7.01,8.12-13.3,12.05-18.9c3.93-5.59,7.58-9.78,10.95-12.56c2.25-1.9,4.3-2.86,6.15-2.86
		c0.93,0,1.81,0.25,2.64,0.73c1.71,1.17,2.56,3.47,2.56,6.88c0,0.93-0.18,2.94-0.55,6.04s-1.33,8.12-2.89,15.05
		c-1.42,6.1-2.61,12.26-3.59,18.46c-0.59,3.66-0.88,7.13-0.88,10.4c0,2.3,0.23,5.21,0.7,8.75c0.46,3.54,2.45,6.6,5.97,9.19
		c1.12,0.29,2.25,0.44,3.37,0.44c2.98,0,5.67-1.04,9.53-2.77c2.32-1.04,7.89-6.04,10.24-10.86c2.36-4.83,4.19-7.9,5.5-9.91
		c3.09-4.74,9.72-9.74,9.72-9.74l0.59,5.12c0,0-5.28,4.7-7.67,9.42c-1.84,4.63-3.88,8.49-7.22,12.47
		c-3.35,3.98-7.14,7.14-11.39,9.48c-2.78,1.51-5.81,2.27-9.08,2.27c-1.71,0-3.49-0.22-5.35-0.66c-5.18-2.98-8.4-7.32-9.67-13.04
		c-0.73-3.22-1.1-6.64-1.1-10.25c0-2.78,0.37-6.65,1.1-11.61s1.88-10.78,3.44-17.47c1.9-7.71,3.03-14.21,3.37-19.48
		c-0.15-1.27-0.46-1.9-0.95-1.9c-0.1,0-0.34,0.09-0.73,0.26s-1.07,0.72-2.05,1.65c-0.2,0.15-0.39,0.32-0.59,0.51
		c-3.32,2.69-7.42,8.06-12.3,16.11c-4.88,8.06-9.96,16.97-15.23,26.73c-5.18,9.47-10.07,18.02-14.69,25.63s-8.41,12.57-11.39,14.87
		c-2.49,2.2-5.01,3.47-7.54,3.81c-0.25,0.05-0.49,0.07-0.73,0.07c-1.08,0-2.15-0.29-3.22-0.88c-1.08-0.59-1.95-1.46-2.64-2.64
		c-1.27-2.2-1.98-5.08-2.12-8.64v-0.59c0-10.2,1.23-20.69,3.7-31.46c2.46-10.77,5.41-21.79,8.83-33.07
		c2.29-7.76,4.48-15.62,6.55-23.58c2.08-7.96,3.77-15.99,5.09-24.1v-0.15c0-0.49-0.04-1.14-0.11-1.94s-0.26-1.48-0.55-2.01
		c-0.25-0.44-0.61-0.66-1.1-0.66c-0.15,0-0.32,0.03-0.51,0.07c-2.59,0.73-6.98,4.3-13.18,10.69c-6.01,6.4-12.74,14.82-20.21,25.27
		c-15.43,21.58-30.8,46.25-46.11,74.01s-26.53,52.14-33.65,73.13c-1.37,3.03-3.13,5.35-5.27,6.96c-1.32,0.93-2.54,1.39-3.66,1.39
		c-0.83,0-1.89-0.39-3.19-1.17c-1.29-0.78-2.09-3.81-2.38-9.08c0.1-3.17,0.46-7.01,1.1-11.5c3.08-19.43,8.79-44.87,17.14-76.32
		c5.42-20.46,10.85-40.26,16.3-59.4c5.44-19.14,10.07-35.06,13.88-47.75L122.21,1.88z"/>
</g>
</svg>
